<svg xmlns="http://www.w3.org/2000/svg" xmlns:xlink="http://www.w3.org/1999/xlink" width="500" zoomAndPan="magnify" viewBox="0 0 375 374.999991" height="500" preserveAspectRatio="xMidYMid meet" version="1.0"><defs><g/><clipPath id="c30c8e5d77"><path d="M 204 32 L 238 32 L 238 66 L 204 66 Z M 204 32 " clip-rule="nonzero"/></clipPath><clipPath id="568aaf2c4f"><path d="M 196.996094 38.039062 L 220.367188 14.882812 L 254.667969 49.507812 L 231.300781 72.660156 Z M 196.996094 38.039062 " clip-rule="nonzero"/></clipPath><clipPath id="b927d22359"><path d="M 196.996094 38.039062 L 220.367188 14.882812 L 254.667969 49.507812 L 231.300781 72.660156 Z M 196.996094 38.039062 " clip-rule="nonzero"/></clipPath><clipPath id="ad521c1874"><path d="M 220 15 L 255 15 L 255 50 L 220 50 Z M 220 15 " clip-rule="nonzero"/></clipPath><clipPath id="8a409b1208"><path d="M 213.765625 21.425781 L 237.136719 -1.730469 L 271.4375 32.894531 L 248.070312 56.046875 Z M 213.765625 21.425781 " clip-rule="nonzero"/></clipPath><clipPath id="a826281ac4"><path d="M 213.765625 21.425781 L 237.136719 -1.730469 L 271.4375 32.894531 L 248.070312 56.046875 Z M 213.765625 21.425781 " clip-rule="nonzero"/></clipPath><clipPath id="ac608fd304"><rect x="0" width="270" y="0" height="131"/></clipPath></defs><rect x="-37.5" width="450" fill="#ffffff" y="-37.499999" height="449.999989" fill-opacity="1"/><rect x="-37.5" width="450" fill="#ffffff" y="-37.499999" height="449.999989" fill-opacity="1"/><g transform="matrix(1, 0, 0, 1, 76, 123)"><g clip-path="url(#ac608fd304)"><g fill="#000000" fill-opacity="1"><g transform="translate(2.422472, 108.908965)"><g><path d="M -0.34375 -49.078125 C -0.875 -50.296875 -0.921875 -51.398438 -0.484375 -52.390625 C -0.046875 -53.378906 0.632812 -54.148438 1.5625 -54.703125 C 2.5 -55.253906 3.488281 -55.53125 4.53125 -55.53125 C 5.582031 -55.53125 6.484375 -55.328125 7.234375 -54.921875 C 7.992188 -54.515625 8.601562 -53.816406 9.0625 -52.828125 L 28.25 -16.046875 L 47.078125 -52.65625 C 48.066406 -54.570312 49.546875 -55.53125 51.515625 -55.53125 C 52.566406 -55.53125 53.570312 -55.238281 54.53125 -54.65625 C 55.488281 -54.070312 56.171875 -53.269531 56.578125 -52.25 C 56.984375 -51.238281 56.835938 -50.035156 56.140625 -48.640625 L 32.78125 -2.703125 C 31.726562 -0.898438 30.21875 0 28.25 0 C 27.3125 0 26.40625 -0.226562 25.53125 -0.6875 C 24.664062 -1.15625 24 -1.882812 23.53125 -2.875 Z M -0.34375 -49.078125 "/></g></g></g><g fill="#000000" fill-opacity="1"><g transform="translate(58.737282, 108.908965)"><g><path d="M 28.5 -56.40625 C 29.4375 -56.40625 30.3125 -56.210938 31.125 -55.828125 C 31.9375 -55.453125 32.546875 -54.828125 32.953125 -53.953125 L 57.625 -5.578125 C 58.375 -4.296875 58.570312 -3.175781 58.21875 -2.21875 C 57.875 -1.257812 57.207031 -0.503906 56.21875 0.046875 C 55.238281 0.597656 54.195312 0.875 53.09375 0.875 C 52.28125 0.875 51.453125 0.65625 50.609375 0.21875 C 49.765625 -0.214844 49.109375 -0.84375 48.640625 -1.65625 L 42.546875 -13.765625 L 14.46875 -13.765625 L 8.375 -1.65625 C 7.96875 -0.726562 7.34375 -0.0742188 6.5 0.296875 C 5.65625 0.679688 4.828125 0.875 4.015625 0.875 C 3.023438 0.875 2.050781 0.597656 1.09375 0.046875 C 0.132812 -0.503906 -0.5625 -1.257812 -1 -2.21875 C -1.4375 -3.175781 -1.394531 -4.207031 -0.875 -5.3125 L 23.96875 -53.953125 C 24.4375 -54.941406 25.03125 -55.597656 25.75 -55.921875 C 26.476562 -56.242188 27.394531 -56.40625 28.5 -56.40625 Z M 28.5 -41.671875 L 18.734375 -22.234375 L 38.265625 -22.234375 Z M 28.5 -41.671875 "/></g></g></g><g fill="#000000" fill-opacity="1"><g transform="translate(116.185375, 108.908965)"><g><path d="M 0.609375 -13.15625 C 0.203125 -14.84375 0.609375 -16.179688 1.828125 -17.171875 C 3.046875 -18.160156 4.410156 -18.65625 5.921875 -18.65625 C 7.085938 -18.65625 8.117188 -18.378906 9.015625 -17.828125 C 9.921875 -17.273438 10.488281 -16.414062 10.71875 -15.25 C 11.363281 -13.394531 12.570312 -11.957031 14.34375 -10.9375 C 16.113281 -9.925781 18.101562 -9.226562 20.3125 -8.84375 C 22.519531 -8.46875 24.582031 -8.28125 26.5 -8.28125 C 28.007812 -8.28125 29.664062 -8.394531 31.46875 -8.625 C 33.269531 -8.863281 34.984375 -9.285156 36.609375 -9.890625 C 38.234375 -10.503906 39.566406 -11.363281 40.609375 -12.46875 C 41.660156 -13.570312 42.1875 -14.992188 42.1875 -16.734375 C 42.1875 -18.597656 41.414062 -19.960938 39.875 -20.828125 C 38.34375 -21.703125 36.382812 -22.328125 34 -22.703125 C 31.613281 -23.085938 29.113281 -23.363281 26.5 -23.53125 C 23.53125 -23.769531 20.550781 -24.117188 17.5625 -24.578125 C 14.570312 -25.046875 11.84375 -25.800781 9.375 -26.84375 C 6.90625 -27.894531 4.914062 -29.421875 3.40625 -31.421875 C 1.894531 -33.429688 1.140625 -36.09375 1.140625 -39.40625 C 1.140625 -42.363281 1.894531 -44.914062 3.40625 -47.0625 C 4.914062 -49.21875 6.890625 -50.976562 9.328125 -52.34375 C 11.765625 -53.707031 14.40625 -54.722656 17.25 -55.390625 C 20.101562 -56.066406 22.894531 -56.40625 25.625 -56.40625 C 28.644531 -56.40625 31.8125 -56.054688 35.125 -55.359375 C 38.4375 -54.660156 41.472656 -53.421875 44.234375 -51.640625 C 46.992188 -49.867188 49.046875 -47.390625 50.390625 -44.203125 C 50.847656 -42.566406 50.507812 -41.210938 49.375 -40.140625 C 48.25 -39.066406 46.929688 -38.53125 45.421875 -38.53125 C 44.484375 -38.53125 43.59375 -38.75 42.75 -39.1875 C 41.914062 -39.625 41.320312 -40.21875 40.96875 -40.96875 C 40.269531 -42.769531 39.046875 -44.101562 37.296875 -44.96875 C 35.554688 -45.84375 33.640625 -46.410156 31.546875 -46.671875 C 29.460938 -46.941406 27.519531 -47.078125 25.71875 -47.078125 C 24.550781 -47.078125 23.164062 -46.957031 21.5625 -46.71875 C 19.96875 -46.488281 18.414062 -46.082031 16.90625 -45.5 C 15.394531 -44.914062 14.128906 -44.113281 13.109375 -43.09375 C 12.097656 -42.082031 11.59375 -40.820312 11.59375 -39.3125 C 11.59375 -37.457031 12.316406 -36.0625 13.765625 -35.125 C 15.222656 -34.195312 17.15625 -33.554688 19.5625 -33.203125 C 21.976562 -32.859375 24.609375 -32.570312 27.453125 -32.34375 C 30.472656 -32.050781 33.476562 -31.710938 36.46875 -31.328125 C 39.46875 -30.953125 42.1875 -30.285156 44.625 -29.328125 C 47.070312 -28.367188 49.019531 -26.914062 50.46875 -24.96875 C 51.925781 -23.019531 52.65625 -20.304688 52.65625 -16.828125 C 52.65625 -13.335938 51.828125 -10.457031 50.171875 -8.1875 C 48.515625 -5.925781 46.347656 -4.125 43.671875 -2.78125 C 40.992188 -1.445312 38.144531 -0.503906 35.125 0.046875 C 32.101562 0.597656 29.226562 0.875 26.5 0.875 C 24.226562 0.875 21.753906 0.65625 19.078125 0.21875 C 16.410156 -0.214844 13.8125 -0.972656 11.28125 -2.046875 C 8.757812 -3.117188 6.539062 -4.554688 4.625 -6.359375 C 2.707031 -8.160156 1.367188 -10.425781 0.609375 -13.15625 Z M 0.609375 -13.15625 "/></g></g></g><g fill="#000000" fill-opacity="1"><g transform="translate(169.187535, 108.908965)"><g><path d="M 45.15625 -55.53125 C 46.84375 -55.53125 48.117188 -55.0625 48.984375 -54.125 C 49.859375 -53.195312 50.296875 -52.15625 50.296875 -51 C 50.296875 -49.894531 49.859375 -48.875 48.984375 -47.9375 C 48.117188 -47.007812 46.84375 -46.546875 45.15625 -46.546875 L 28.9375 -46.546875 L 29.03125 -4.625 C 29.03125 -3.050781 28.460938 -1.882812 27.328125 -1.125 C 26.191406 -0.375 25.046875 0 23.890625 0 C 22.660156 0 21.507812 -0.375 20.4375 -1.125 C 19.363281 -1.882812 18.828125 -3.050781 18.828125 -4.625 L 18.828125 -46.546875 L 2.703125 -46.546875 C 1.015625 -46.546875 -0.21875 -47.007812 -1 -47.9375 C -1.78125 -48.875 -2.171875 -49.894531 -2.171875 -51 C -2.171875 -52.15625 -1.78125 -53.195312 -1 -54.125 C -0.21875 -55.0625 1.015625 -55.53125 2.703125 -55.53125 Z M 45.15625 -55.53125 "/></g></g></g><g clip-path="url(#c30c8e5d77)"><g clip-path="url(#568aaf2c4f)"><g clip-path="url(#b927d22359)"><path fill="#e43531" d="M 237.785156 32.628906 L 208.476562 32.34375 C 202.816406 32.285156 202.242188 43.332031 208.945312 43.28125 L 227.171875 43.140625 L 226.417969 61.511719 C 226.1875 67.105469 237.089844 67.320312 237.203125 61.636719 Z M 237.785156 32.628906 " fill-opacity="1" fill-rule="nonzero"/></g></g></g><g clip-path="url(#ad521c1874)"><g clip-path="url(#8a409b1208)"><g clip-path="url(#a826281ac4)"><path fill="#e43531" d="M 254.554688 16.011719 L 225.246094 15.726562 C 219.582031 15.671875 219.011719 26.71875 225.714844 26.667969 L 243.941406 26.527344 L 243.1875 44.898438 C 242.957031 50.492188 253.859375 50.703125 253.972656 45.023438 Z M 254.554688 16.011719 " fill-opacity="1" fill-rule="nonzero"/></g></g></g></g></g></svg>