<svg xmlns="http://www.w3.org/2000/svg" xmlns:xlink="http://www.w3.org/1999/xlink" width="500" zoomAndPan="magnify" viewBox="0 0 375 374.999991" height="500" preserveAspectRatio="xMidYMid meet" version="1.0"><defs><clipPath id="11a6e71a65"><path d="M 104.742188 104.742188 L 270.257812 104.742188 L 270.257812 270.257812 L 104.742188 270.257812 Z M 104.742188 104.742188 " clip-rule="nonzero"/></clipPath><clipPath id="9288e21060"><path d="M 187.5 104.742188 C 141.792969 104.742188 104.742188 141.792969 104.742188 187.5 C 104.742188 233.207031 141.792969 270.257812 187.5 270.257812 C 233.207031 270.257812 270.257812 233.207031 270.257812 187.5 C 270.257812 141.792969 233.207031 104.742188 187.5 104.742188 Z M 187.5 104.742188 " clip-rule="nonzero"/></clipPath><clipPath id="491de17403"><path d="M 0.742188 0.742188 L 166.257812 0.742188 L 166.257812 166.257812 L 0.742188 166.257812 Z M 0.742188 0.742188 " clip-rule="nonzero"/></clipPath><clipPath id="70882ec92e"><path d="M 83.5 0.742188 C 37.792969 0.742188 0.742188 37.792969 0.742188 83.5 C 0.742188 129.207031 37.792969 166.257812 83.5 166.257812 C 129.207031 166.257812 166.257812 129.207031 166.257812 83.5 C 166.257812 37.792969 129.207031 0.742188 83.5 0.742188 Z M 83.5 0.742188 " clip-rule="nonzero"/></clipPath><clipPath id="59d11f18b1"><rect x="0" width="167" y="0" height="167"/></clipPath><clipPath id="a949de30ba"><path d="M 6 74 L 84 74 L 84 151 L 6 151 Z M 6 74 " clip-rule="nonzero"/></clipPath><clipPath id="b8c41a00f9"><path d="M -9.648438 87.046875 L 43.890625 34.003906 L 122.25 113.097656 L 68.710938 166.140625 Z M -9.648438 87.046875 " clip-rule="nonzero"/></clipPath><clipPath id="269230cf49"><path d="M -9.648438 87.046875 L 43.890625 34.003906 L 122.25 113.097656 L 68.710938 166.140625 Z M -9.648438 87.046875 " clip-rule="nonzero"/></clipPath><clipPath id="c9c453ec0e"><path d="M 44 36 L 122 36 L 122 113 L 44 113 Z M 44 36 " clip-rule="nonzero"/></clipPath><clipPath id="03c1f5d72c"><path d="M 28.648438 49.105469 L 82.1875 -3.9375 L 160.546875 75.152344 L 107.007812 128.195312 Z M 28.648438 49.105469 " clip-rule="nonzero"/></clipPath><clipPath id="8e3d7c2623"><path d="M 28.648438 49.105469 L 82.1875 -3.9375 L 160.546875 75.152344 L 107.007812 128.195312 Z M 28.648438 49.105469 " clip-rule="nonzero"/></clipPath><clipPath id="ca34805a23"><rect x="0" width="157" y="0" height="158"/></clipPath></defs><g clip-path="url(#11a6e71a65)"><g clip-path="url(#9288e21060)"><g transform="matrix(1, 0, 0, 1, 104, 104)"><g clip-path="url(#59d11f18b1)"><g clip-path="url(#491de17403)"><g clip-path="url(#70882ec92e)"><path fill="#000000" d="M 0.742188 0.742188 L 166.257812 0.742188 L 166.257812 166.257812 L 0.742188 166.257812 Z M 0.742188 0.742188 " fill-opacity="1" fill-rule="nonzero"/></g></g></g></g></g></g><g transform="matrix(1, 0, 0, 1, 112, 106)"><g clip-path="url(#ca34805a23)"><g clip-path="url(#a949de30ba)"><g clip-path="url(#b8c41a00f9)"><g clip-path="url(#269230cf49)"><path fill="#e43531" d="M 83.507812 74.679688 L 16.558594 74.027344 C 3.628906 73.902344 2.320312 99.128906 17.632812 99.011719 L 59.265625 98.695312 L 57.539062 140.660156 C 57.015625 153.4375 81.917969 153.921875 82.179688 140.941406 Z M 83.507812 74.679688 " fill-opacity="1" fill-rule="nonzero"/></g></g></g><g clip-path="url(#c9c453ec0e)"><g clip-path="url(#03c1f5d72c)"><g clip-path="url(#8e3d7c2623)"><path fill="#e43531" d="M 121.804688 36.734375 L 54.855469 36.085938 C 41.925781 35.957031 40.617188 61.183594 55.929688 61.070312 L 97.5625 60.753906 L 95.839844 102.714844 C 95.3125 115.492188 120.214844 115.976562 120.476562 103 Z M 121.804688 36.734375 " fill-opacity="1" fill-rule="nonzero"/></g></g></g></g></g></svg>